<svg xmlns="http://www.w3.org/2000/svg" fill="none" viewBox="0 0 48 48" id="React-Query-Icon--Streamline-Svg-Logos" height="48" width="48"><desc>React Query Icon Streamline Icon: https://streamlinehq.com</desc><path fill="#00435b" d="m29.5042 29.1109 -0.9015 1.5655c-0.2716 0.47155 -0.77435 0.7622 -1.31855 0.7622H20.37785c-0.5442 0 -1.04695 -0.29065 -1.31855 -0.7622l-0.9016 -1.5655h11.3465Zm2.5239 -4.3824 -1.58965 2.76015h-13.215l-1.58955 -2.76015h16.3942Zm-1.53125 -4.28545 1.5338 2.6633H15.63135l1.53375 -2.6633h13.33175Zm-3.2127 -4.0512c0.5442 0 1.04695 0.29065 1.31855 0.7622l0.9599 1.66675H18.09935l0.95995 -1.66675c0.2716 -0.47155 0.77435 -0.7622 1.31855 -0.7622h6.9063Z" stroke-width="0.5"></path><path fill="#002b3b" d="M10.32645 15.66565c-0.76505 -3.7097 -0.9292 -6.555 -0.4347 -8.62105 0.2941 -1.2288 0.8318 -2.23123 1.64945 -2.954465 0.8632 -0.763545 1.95455 -1.13822 3.1808 -1.13822 2.023 0 4.1496 0.9225 6.4223 2.674985 0.927 0.71485 1.8891 1.57645 2.88825 2.5853 0.07955 -0.1024 0.16945 -0.19895 0.2696 -0.2882 2.82485 -2.51735 5.2031 -4.08138 7.23725 -4.68443 1.2095 -0.35857 2.3451 -0.392735 3.3792 -0.044725 1.09155 0.367345 1.9613 1.126695 2.57495 2.190305 1.0127 1.75535 1.27975 4.0619 0.9022 6.90985 -0.1539 1.16085 -0.417 2.4254 -0.78875 3.7955 0.14025 0.01695 0.28085 0.04805 0.42005 0.09415 3.5841 1.1877 6.122 2.46495 7.6585 3.92465 0.9142 0.86845 1.51115 1.8353 1.72695 2.90555 0.2278 1.12965 0.0057 2.26275 -0.6072 3.32555 -1.01085 1.7528 -2.86945 3.13525 -5.5173 4.2302 -1.0632 0.43965 -2.26615 0.83785 -3.6102 1.196 0.06135 0.13845 0.1089 0.2855 0.14075 0.4398 0.76505 3.70965 0.9292 6.55495 0.4347 8.62105 -0.2941 1.2288 -0.83185 2.2312 -1.64945 2.95445 -0.8632 0.76355 -1.95455 1.1382 -3.18085 1.1382 -2.02295 0 -4.1496 -0.9225 -6.4223 -2.675 -0.93685 -0.7224 -1.90955 -1.59475 -2.92015 -2.6175 -0.104 0.16265 -0.23165 0.3138 -0.38265 0.4484 -2.82485 2.5173 -5.2031 4.08135 -7.23725 4.6844 -1.2095 0.35855 -2.3451 0.3927 -3.3792 0.0447 -1.09155 -0.36735 -1.9613 -1.1267 -2.57495 -2.1903 -1.0127 -1.75535 -1.27975 -4.06185 -0.9022 -6.90985 0.15945 -1.2028 0.43615 -2.51695 0.82945 -3.9445 -0.1537 -0.01555 -0.3081 -0.04805 -0.46075 -0.09865 -3.5841 -1.18775 -6.121995 -2.465 -7.65851 -3.92465 -0.914185 -0.86845 -1.51116 -1.8353 -1.72696 -2.90555 -0.2277815 -1.12965 -0.00568 -2.26275 0.60724 -3.32555 1.010835 -1.7528 2.869455 -3.13525 5.51728 -4.2302 1.0949 -0.4528 2.33795 -0.86155 3.7307 -1.2279 -0.0496 -0.1215 -0.0888 -0.2492 -0.11625 -0.3823Z" stroke-width="0.5"></path><path fill="#ff4154" d="M35.31785 32.5709c0.3564 -0.06315 0.69785 0.16535 0.77745 0.51585l0.00435 0.02075 0.038 0.19725c1.23185 6.47655 0.3641 9.71485 -2.60335 9.71485 -2.9033 0 -6.5992 -2.7632 -11.08765 -8.2897 -0.0992 -0.1221 -0.1527 -0.27495 -0.15135 -0.43225 0.00325 -0.36645 0.2973 -0.66225 0.66115 -0.6702l0.02105 -0.0001 0.23635 0.00165c1.8888 0.01025 3.72495 -0.0556 5.5085 -0.19755 2.1054 -0.16755 4.3039 -0.4544 6.5955 -0.86055Zm-20.3791 -4.89565 0.01135 0.0192 0.1186 0.207c0.95045 1.65235 1.9407 3.22065 2.9707 4.7049 1.21305 1.74795 2.57715 3.51745 4.09235 5.3085 0.2344 0.2771 0.2076 0.68835 -0.0568 0.93295l-0.0172 0.0154 -0.1525 0.1312c-5.0132 4.29555 -8.27155 5.15305 -9.77515 2.5726 -1.47175 -2.52585 -0.93815 -7.1186 1.6008 -13.7782 0.0558 -0.14635 0.16065 -0.2688 0.29665 -0.3464 0.3179 -0.18145 0.72095 -0.0767 0.9112 0.23285ZM37.8618 18.1185l0.02055 0.0067 0.1887 0.06515C44.259 20.3429 46.61 22.7085 45.12395 25.2871c-1.4534 2.5219 -5.67855 4.3581 -12.6755 5.50855 -0.15605 0.02565 -0.31615 -0.0042 -0.45245 -0.08435 -0.32195 -0.18925 -0.42955 -0.6037 -0.24025 -0.9257 1.00215 -1.7047 1.90475 -3.4009 2.70775 -5.08855 0.91075 -1.91405 1.7654 -3.9685 2.564 -6.16335 0.1211 -0.3328 0.47675 -0.51355 0.8137 -0.4212l0.0206 0.006Zm-21.8581 -1.08375c0.32195 0.18925 0.42955 0.6037 0.24025 0.9257 -1.00215 1.7047 -1.90475 3.4009 -2.70775 5.0886 -0.91075 1.914 -1.7654 3.96845 -2.564 6.16335 -0.12355 0.33955 -0.4914 0.5208 -0.8343 0.41515l-0.02055 -0.0067 -0.1887 -0.06515C3.74068 27.40315 1.389705 25.03755 2.875735 22.459c1.453385 -2.52195 5.678565 -4.35815 12.675515 -5.5086 0.15605 -0.02565 0.3161 0.0042 0.45245 0.08435Zm19.8659 -10.6021c1.47175 2.52585 0.93815 7.1186 -1.6008 13.7782 -0.0558 0.14635 -0.16065 0.2688 -0.29665 0.34645 -0.3179 0.1814 -0.72095 0.07665 -0.9112 -0.2329l-0.01135 -0.0192 -0.1186 -0.207c-0.95045 -1.65235 -1.9407 -3.22065 -2.9707 -4.7049 -1.21305 -1.7479 -2.57715 -3.51745 -4.09235 -5.3085 -0.2344 -0.2771 -0.20765 -0.68835 0.0568 -0.93295l0.0172 -0.0154 0.15245 -0.1312C31.1076 4.709725 34.366 3.8522 35.8696 6.43265ZM14.71895 4.89551c2.90335 0 6.59925 2.76324 11.0877 8.28969 0.0992 0.1221 0.1527 0.27495 0.15135 0.43225 -0.00325 0.36645 -0.2973 0.66225 -0.66115 0.6702l-0.02105 0.00015 -0.23635 -0.0017c-1.8888 -0.01025 -3.72495 0.0556 -5.5085 0.19755 -2.1054 0.1676 -4.3039 0.45445 -6.5955 0.86055 -0.3564 0.06315 -0.6979 -0.1653 -0.77745 -0.5158l-0.00435 -0.0208 -0.038 -0.19725c-1.2319 -6.47655 -0.3641 -9.71484 2.6033 -9.71484Z" stroke-width="0.5"></path><path fill="#ffd94c" d="M20.9328 16.4768h5.79715c0.8478 0 1.63085 0.45345 2.05285 1.18875l2.9108 5.07195c0.41875 0.72965 0.41875 1.6267 0 2.3563l-2.9108 5.07195c-0.422 0.7353 -1.20505 1.18875 -2.05285 1.18875H20.9328c-0.8478 0 -1.63085 -0.45345 -2.05285 -1.18875l-2.91085 -5.07195c-0.4187 -0.7296 -0.4187 -1.62665 0 -2.3563l2.91085 -5.07195c0.422 -0.7353 1.20505 -1.18875 2.05285 -1.18875Zm4.9136 1.53085c0.84825 0 1.63165 0.4539 2.05345 1.18985l2.0298 3.5411c0.4179 0.72905 0.4179 1.62505 0 2.3541l-2.0298 3.54115c-0.4218 0.7359 -1.2052 1.18985 -2.05345 1.18985h-4.0301c-0.84825 0 -1.6316 -0.45395 -2.05345 -1.18985l-2.0298 -3.54115c-0.4179 -0.72905 -0.4179 -1.62505 0 -2.3541l2.0298 -3.5411c0.42185 -0.73595 1.2052 -1.18985 2.05345 -1.18985h4.0301Zm-0.95235 1.6743h-2.1254c-0.8474 0 -1.6301 0.453 -2.0523 1.18775l-1.0726 1.8668c-0.4195 0.73015 -0.4195 1.6282 0 2.35835l1.0726 1.86675c0.4222 0.73475 1.2049 1.18775 2.0523 1.18775h2.1254c0.8474 0 1.63015 -0.453 2.0523 -1.18775l1.0726 -1.86675c0.4195 -0.73015 0.4195 -1.6282 0 -2.35835l-1.0726 -1.8668c-0.42215 -0.73475 -1.2049 -1.18775 -2.0523 -1.18775Zm-0.91695 1.6026c0.84675 0 1.629 0.45235 2.05135 1.1862l0.1521 0.2642c0.4207 0.7309 0.4207 1.6305 0 2.3614l-0.1521 0.2642c-0.42235 0.7339 -1.2046 1.1862 -2.05135 1.1862h-0.2915c-0.84675 0 -1.62895 -0.4523 -2.05135 -1.1862l-0.1521 -0.2642c-0.4207 -0.7309 -0.4207 -1.6305 0 -2.3614l0.1521 -0.2642c0.4224 -0.73385 1.2046 -1.1862 2.05135 -1.1862h0.2915Zm-0.14535 1.57865c-0.3769 0 -0.72445 0.2006 -0.9126 0.52625 -0.18815 0.32555 -0.18815 0.72685 0 1.05245 0.18815 0.3256 0.5357 0.5262 0.9118 0.5262 0.3769 0 0.72445 -0.2006 0.9126 -0.5262 0.18815 -0.3256 0.18815 -0.7269 0 -1.05245 -0.18815 -0.32565 -0.5357 -0.52625 -0.9118 -0.52625Zm-8.5388 1.05245h1.89485Z" stroke-width="0.5"></path></svg>